<svg version="1" xmlns="http://www.w3.org/2000/svg" width="1365.333" height="1365.333" viewBox="0 0 1024.000000 1024.000000"><path d="M470.5 38.5c-113 10.4-215 58-294.5 137.5-73.6 73.6-120.9 168.8-135 271.5-5.3 38.8-5.3 90 0 129 26.2 192.5 168.9 351 357.4 397C437.6 983 470.9 987 512 987c41.1 0 74.4-4 113.6-13.5C806.5 929.3 946.1 781.2 979.4 598c5.4-29.3 7.6-54.6 7.6-86 0-73.1-15.2-140.1-46.6-205.8C872 163.1 733.9 62.4 576.5 41c-29.8-4-77-5.1-106-2.5zm-86.3 238.7c-34 63.4-57 131.4-65.1 192.4-5.5 41.5-5.3 86.6.5 127.4 8.3 58.2 28 117.3 60.7 181.4l10.5 20.6h-65.9l-9.3-14.3c-38.8-59.2-63.9-118.7-75-177.7-10.9-57.8-9.2-116.7 4.9-173 13.6-54.3 41.2-114.1 74.2-161.3l5.4-7.7H390.8l-6.6 12.2zm324.5 3.6c15.1 23.1 23.2 37.2 34.8 60.7C771 397.1 784.5 446 789 506c3.9 52.5-4.4 110.9-23.5 164.5-14.1 39.5-31.9 74.5-59.4 116.7l-7.6 11.8h-32.7c-18.1 0-32.8-.3-32.8-.6s3.3-7 7.4-14.8c30.3-57.6 52.4-120.6 61.5-175.1 4.8-28.7 5.6-39.4 5.6-77s-.8-48.4-5.6-77c-9-53.8-28.9-111-59.4-170.3-5.2-10.2-9.5-18.6-9.5-18.8 0-.2 14.7-.4 32.8-.4h32.7l10.2 15.8z"/></svg>