<svg version="1" xmlns="http://www.w3.org/2000/svg" width="1333.333" height="1333.333" viewBox="0 0 1000.000000 1000.000000"><path d="M0 500v500h1000V0H0v500zm127-124.9c.7 1.3 1 8.3.8 20-.2 14.6-.6 18.2-1.8 18.9-1.6 1.1-29.9 1.4-32.4.4-1.4-.5-1.6-3.3-1.6-20.3 0-10.9.3-20.1.7-20.4.3-.4 8-.7 16.9-.7 15.4 0 16.4.1 17.4 2.1zm307 0c.7 1.3 1 8.3.8 20-.2 14.6-.6 18.2-1.8 18.9-1.6 1.1-28.1 1.3-31.7.4-2.3-.6-2.3-.7-2.3-20.3 0-10.9.3-20.1.7-20.4.3-.4 8-.7 16.9-.7 15.4 0 16.4.1 17.4 2.1zM586 405v27h47v27h-47v36.7c0 41.7 0 41.9 7.5 45.7 3.5 1.8 6.2 2.1 21.8 2.4l17.7.4V571h-20.2c-41.2 0-54.2-5.2-60.5-24.3-1.4-4.5-1.7-11-2.1-46.5l-.3-41.2H514v-27h36v-38.5l17.3-7.7c9.4-4.2 17.5-7.7 18-7.7.4-.1.7 12 .7 26.9zm165.7-20.8c-8.7 15.6-18.7 41.4-23.2 60.1-7.7 31.7-7.2 66.4 1.6 98.9 4.1 15.4 11 33.4 18.3 48l6.3 12.8h-27.5l-5.2-8.1c-15.3-23.9-26.1-50.3-30.6-74.9-2.2-12.1-2.9-36.9-1.4-49.7 3.3-27.9 14.7-58.4 31.9-85.1l5.3-8.2h28l-3.5 6.2zm140.3 2.5c8.3 13.1 19.2 35.4 23.3 48 12.5 37.5 12.5 74.5.1 112.1-4.1 12.6-14.9 34.9-23.1 47.9l-5.8 9.3h-13.8c-7.6 0-13.7-.3-13.5-.8.2-.4 2.9-5.9 6-12.2 31.6-64.5 33.5-122.6 6.3-186.5-2.6-6.1-6.4-14.2-8.6-18.2-2.1-4-3.9-7.5-3.9-7.8 0-.3 6.2-.5 13.8-.5l13.7.1 5.5 8.6zm-588.8 45.6c10.9 5.4 18 16.7 20.4 33 1 6.9 1.4 21.5 1.4 57.4V571h-35v-40.8c-.1-44.5-.8-56.7-3.8-63.5-6.2-14-26.4-11.4-33.1 4.2-3.5 8.3-4.1 16.2-4.1 58.8V571h-35V432H245.7l1.8 10c.9 5.5 1.9 10 2.1 10 .2 0 1.5-2.2 2.8-4.8 2.8-5.6 10.2-12.7 15.4-14.9 6.4-2.8 9.4-3.2 19.7-3 8.7.2 10.8.6 15.7 3zM128 478.2c0 27.6.5 48.1 1.1 50.7 1.3 5.7 5.5 11.5 9.9 13.7 2.9 1.5 6.8 1.9 21.8 2.2l18.2.4V572h-23.7c-26.4 0-33.9-1-42.4-5.6-10.2-5.6-16.7-16.2-19.4-31.8-1.1-6.8-1.5-16.7-1.5-42.2V459H62v-27h66v46.2zm307 0c0 27.6.5 48.1 1.1 50.7 1.3 5.7 5.5 11.5 9.9 13.7 2.9 1.5 6.8 1.9 21.8 2.2l18.2.4V572h-23.7c-26.4 0-33.9-1-42.4-5.6-10.2-5.6-16.7-16.2-19.4-31.8-1.1-6.8-1.5-16.7-1.5-42.2V459h-30v-27h66v46.2z"/></svg>